<?xml version="1.0" standalone="no"?><!DOCTYPE svg PUBLIC "-//W3C//DTD SVG 1.1//EN" "http://www.w3.org/Graphics/SVG/1.1/DTD/svg11.dtd"><svg xmlns:xlink="http://www.w3.org/1999/xlink" version="1.1" style="font-family:'lucida grande', 'lucida sans unicode', arial, helvetica, sans-serif;font-size:12px;" xmlns="http://www.w3.org/2000/svg" width="600" height="400"><desc>Created with Highcharts 4.0.3</desc><defs><clipPath id="highcharts-47"><rect x="0" y="0" width="362" height="333"></rect></clipPath></defs><rect x="0" y="0" width="600" height="400" strokeWidth="0" fill="#FFFFFF" class=" highcharts-background"></rect><g class="highcharts-series-group" ><g class="highcharts-series" visibility="visible"  transform="translate(10,52) scale(1 1)"><path fill="#7cb5ec" d="M 180.9745408495381 42.0000025926734 A 125 125 0 0 1 227.45748403256664 50.95387909385417 L 207.0161910582373 102.01417229255834 A 70 70 0 0 0 180.98574287574135 97.0000014518971 Z" stroke="#FFFFFF" stroke-width="1" stroke-linejoin="round" transform="translate(0,0)"></path><path fill="#434348" d="M 227.57350690539167 51.00039459319943 A 125 125 0 0 1 251.04250890189013 63.467169715453835 L 220.22380498505848 109.02161504065415 A 70 70 0 0 0 207.0811638670193 102.04022097219168 Z" stroke="#FFFFFF" stroke-width="1" stroke-linejoin="round" transform="translate(0,0)"></path><path fill="#90ed7d" d="M 251.1460066936677 63.5372639790928 A 125 125 0 1 1 89.57360686567768 81.7579057129147 L 129.8012198447795 119.26442719923224 A 70 70 0 1 0 220.2817637484539 109.06086782829196 Z" stroke="#FFFFFF" stroke-width="1" stroke-linejoin="round" transform="translate(0,0)"></path><path fill="#f7a35c" d="M 89.65889465895049 81.66652195606173 A 125 125 0 0 1 180.82637750774106 42.00012057913743 L 180.902771404335 97.00006752431696 A 70 70 0 0 0 129.84898100901228 119.21325229539457 Z" stroke="#FFFFFF" stroke-width="1" stroke-linejoin="round" transform="translate(0,0)"></path></g><g class="highcharts-markers" visibility="visible"  transform="translate(10,52) scale(1 1)"></g></g><text x="300" text-anchor="middle" class="highcharts-title"  style="color:#333333;font-size:24px;font-weight:bold;fill:#333333;width:536px;" y="30"><tspan>Hello World Dalvik</tspan></text><g class="highcharts-data-labels" visibility="visible"  transform="translate(10,52) scale(1 1)" opacity="1"><path fill="none" d="M 213.53223064599428 21.5 C 208.53223064599428 21.5 208.53223064599445 24.137869236036764 206.63345611868448 33.955947219758364 L 204.7346815913745 43.774025203479965" stroke="#7cb5ec" stroke-width="1"></path><path fill="none" d="M 264.36453279386023 44.5 C 259.36453279386023 44.5 249.1033139289969 38.48852148385876 244.4065336580316 47.31689931255816 L 239.7097533870663 56.14527714125755" stroke="#434348" stroke-width="1"></path><path fill="none" d="M 202.16403199741617 310.5962319756714 C 197.16403199741617 310.5962319756714 197.16403199741637 310.59623197567134 196.04927117000835 300.6585608049354 L 194.93451034260033 290.72088963419947" stroke="#90ed7d" stroke-width="1"></path><path fill="none" d="M 118.25524663534841 33.494197649668074 C 123.25524663534841 33.494197649668074 123.25524663534844 33.49419764966807 127.23764341911752 42.667011604863376 L 131.2200402028866 51.839825560058685" stroke="#f7a35c" stroke-width="1"></path><g  style="cursor:pointer;" transform="translate(219,12)"><text x="3"  style="font-size:16px;color:black;fill:black;" y="19"><tspan>118 (6.1%)</tspan></text></g><g  style="cursor:pointer;" transform="translate(269,35)"><text x="3"  style="font-size:16px;color:black;fill:black;" y="19"><tspan>66 (3.4%)</tspan></text></g><g  style="cursor:pointer;" transform="translate(207,301)"><text x="3"  style="font-size:16px;color:black;fill:black;" y="19"><tspan>1503.5 (77.5%)</tspan></text></g><g  style="cursor:pointer;" transform="translate(23,23)"><text x="3"  style="font-size:16px;color:black;fill:black;" y="19"><tspan>253 (13.0%)</tspan></text></g></g><g class="highcharts-legend"  transform="translate(392,269)"><rect x="0.5" y="0.5" width="197" height="90" strokeWidth="1" stroke="#909090" stroke-width="1" fill="none" visibility="visible"></rect><g ><g><g class="highcharts-legend-item"  transform="translate(16,11)"><text x="21" style="color:#333333;font-size:14px;font-weight:bold;cursor:pointer;fill:#333333;" text-anchor="start"  y="17"><tspan>Load VM</tspan></text><rect x="0" y="6" width="16" height="12"  fill="#7cb5ec"></rect></g><g class="highcharts-legend-item"  transform="translate(16,27)"><text x="21" y="17" style="color:#333333;font-size:14px;font-weight:bold;cursor:pointer;fill:#333333;" text-anchor="start" ><tspan>Load Clojure Runtime</tspan></text><rect x="0" y="6" width="16" height="12"  fill="#434348"></rect></g><g class="highcharts-legend-item"  transform="translate(16,43)"><text x="21" y="17" style="color:#333333;font-size:14px;font-weight:bold;cursor:pointer;fill:#333333;" text-anchor="start" ><tspan>Load Clojure Core</tspan></text><rect x="0" y="6" width="16" height="12"  fill="#90ed7d"></rect></g><g class="highcharts-legend-item"  transform="translate(16,59)"><text x="21" y="17" style="color:#333333;font-size:14px;font-weight:bold;cursor:pointer;fill:#333333;" text-anchor="start" ><tspan>Print Hello World</tspan></text><rect x="0" y="6" width="16" height="12"  fill="#f7a35c"></rect></g></g></g></g><g class="highcharts-tooltip"  style="cursor:default;padding:0;white-space:nowrap;" transform="translate(0,-9999)"><path fill="none" d="M 3 0 L 13 0 C 16 0 16 0 16 3 L 16 13 C 16 16 16 16 13 16 L 3 16 C 0 16 0 16 0 13 L 0 3 C 0 0 0 0 3 0"  stroke="black" stroke-opacity="0.049999999999999996" stroke-width="5" transform="translate(1, 1)"></path><path fill="none" d="M 3 0 L 13 0 C 16 0 16 0 16 3 L 16 13 C 16 16 16 16 13 16 L 3 16 C 0 16 0 16 0 13 L 0 3 C 0 0 0 0 3 0"  stroke="black" stroke-opacity="0.09999999999999999" stroke-width="3" transform="translate(1, 1)"></path><path fill="none" d="M 3 0 L 13 0 C 16 0 16 0 16 3 L 16 13 C 16 16 16 16 13 16 L 3 16 C 0 16 0 16 0 13 L 0 3 C 0 0 0 0 3 0"  stroke="black" stroke-opacity="0.15" stroke-width="1" transform="translate(1, 1)"></path><path fill="rgb(249, 249, 249)" fill-opacity=" .85" d="M 3 0 L 13 0 C 16 0 16 0 16 3 L 16 13 C 16 16 16 16 13 16 L 3 16 C 0 16 0 16 0 13 L 0 3 C 0 0 0 0 3 0"></path><text x="8"  style="font-size:12px;color:#333333;fill:#333333;" y="21"></text></g></svg>