<?xml version="1.0" standalone="no"?><!DOCTYPE svg PUBLIC "-//W3C//DTD SVG 1.1//EN" "http://www.w3.org/Graphics/SVG/1.1/DTD/svg11.dtd"><svg xmlns:xlink="http://www.w3.org/1999/xlink" version="1.1" style="font-family:'lucida grande', 'lucida sans unicode', arial, helvetica, sans-serif;font-size:12px;" xmlns="http://www.w3.org/2000/svg" width="600" height="400"><desc>Created with Highcharts 4.0.3</desc><defs><clipPath id="highcharts-51"><rect x="0" y="0" width="362" height="333"></rect></clipPath></defs><rect x="0" y="0" width="600" height="400" strokeWidth="0" fill="#FFFFFF" class=" highcharts-background"></rect><g class="highcharts-series-group" ><g class="highcharts-series" visibility="visible"  transform="translate(10,52) scale(1 1)"><path fill="#7cb5ec" d="M 180.9745408495381 42.0000025926734 A 125 125 0 0 1 227.34141470226143 50.90747964062014 L 206.9511922332664 101.98818859874727 A 70 70 0 0 0 180.98574287574135 97.0000014518971 Z" stroke="#FFFFFF" stroke-width="1" stroke-linejoin="round" transform="translate(0,0)"></path><path fill="#434348" d="M 227.45748403256664 50.95387909385417 A 125 125 0 0 1 287.1716340134084 101.02588287121337 L 240.45611504750872 130.05449440787947 A 70 70 0 0 0 207.0161910582373 102.01417229255834 Z" stroke="#FFFFFF" stroke-width="1" stroke-linejoin="round" transform="translate(0,0)"></path><path fill="#90ed7d" d="M 287.23755503372894 101.13208747458732 A 125 125 0 1 1 169.71675644176355 42.51028791580602 L 174.6813836073876 97.28576123285137 A 70 70 0 1 0 240.4930308188882 130.1139689857689 Z" stroke="#FFFFFF" stroke-width="1" stroke-linejoin="round" transform="translate(0,0)"></path><path fill="#f7a35c" d="M 169.84125177472083 42.49906691897917 A 125 125 0 0 1 180.82637750774106 42.00012057913743 L 180.902771404335 97.00006752431696 A 70 70 0 0 0 174.75110099384366 97.27947747462834 Z" stroke="#FFFFFF" stroke-width="1" stroke-linejoin="round" transform="translate(0,0)"></path></g><g class="highcharts-markers" visibility="visible"  transform="translate(10,52) scale(1 1)"></g></g><text x="300" text-anchor="middle" class="highcharts-title"  style="color:#333333;font-size:24px;font-weight:bold;fill:#333333;width:536px;" y="30"><tspan>Hello World JVM</tspan></text><g class="highcharts-data-labels" visibility="visible"  transform="translate(10,52) scale(1 1)" opacity="1"><path fill="none" d="M 213.45754739320003 21.5 C 208.45754739320003 21.5 208.4575473932001 24.12344613262276 206.56392343504837 33.942518813131535 L 204.67029947689664 43.76159149364031" stroke="#7cb5ec" stroke-width="1"></path><path fill="none" d="M 279.2502988153526 55.46225069442624 C 274.2502988153526 55.46225069442624 274.2502988153526 55.462250694426245 267.8192437246386 63.12002650860374 L 261.38818863392464 70.77780232278124" stroke="#434348" stroke-width="1"></path><path fill="none" d="M 111.21111636875608 296.22047085104623 C 116.21111636875608 296.22047085104623 116.21111636875602 296.2204708510462 120.6793152398763 287.27423148200853 L 125.14751411099658 278.3279921129709" stroke="#90ed7d" stroke-width="1"></path><path fill="none" d="M 169.50232972981127 21.64565839761686 C 174.50232972981127 21.64565839761686 174.5023297298112 21.645658397616856 174.9504449208587 31.63561299088466 L 175.3985601119062 41.62556758415246" stroke="#f7a35c" stroke-width="1"></path><g  style="cursor:pointer;" transform="translate(218,12)"><text x="3"  style="font-size:16px;color:black;fill:black;" y="19"><tspan>51 (6.1%)</tspan></text></g><g  style="cursor:pointer;" transform="translate(284,45)"><text x="3"  style="font-size:16px;color:black;fill:black;" y="19"><tspan>85 (10.1%)</tspan></text></g><g  style="cursor:pointer;" transform="translate(16,286)"><text x="3"  style="font-size:16px;color:black;fill:black;" y="19"><tspan>693 (82.4%)</tspan></text></g><g  style="cursor:pointer;" transform="translate(92,12)"><text x="3"  style="font-size:16px;color:black;fill:black;" y="19"><tspan>12 (1.4%)</tspan></text></g></g><g class="highcharts-legend"  transform="translate(392,269)"><rect x="0.5" y="0.5" width="197" height="90" strokeWidth="1" stroke="#909090" stroke-width="1" fill="none" visibility="visible"></rect><g ><g><g class="highcharts-legend-item"  transform="translate(16,11)"><text x="21" style="color:#333333;font-size:14px;font-weight:bold;cursor:pointer;fill:#333333;" text-anchor="start"  y="17"><tspan>Load JVM</tspan></text><rect x="0" y="6" width="16" height="12"  fill="#7cb5ec"></rect></g><g class="highcharts-legend-item"  transform="translate(16,27)"><text x="21" y="17" style="color:#333333;font-size:14px;font-weight:bold;cursor:pointer;fill:#333333;" text-anchor="start" ><tspan>Load Clojure Runtime</tspan></text><rect x="0" y="6" width="16" height="12"  fill="#434348"></rect></g><g class="highcharts-legend-item"  transform="translate(16,43)"><text x="21" y="17" style="color:#333333;font-size:14px;font-weight:bold;cursor:pointer;fill:#333333;" text-anchor="start" ><tspan>Load Clojure Core</tspan></text><rect x="0" y="6" width="16" height="12"  fill="#90ed7d"></rect></g><g class="highcharts-legend-item"  transform="translate(16,59)"><text x="21" y="17" style="color:#333333;font-size:14px;font-weight:bold;cursor:pointer;fill:#333333;" text-anchor="start" ><tspan>Print Hello World</tspan></text><rect x="0" y="6" width="16" height="12"  fill="#f7a35c"></rect></g></g></g></g><g class="highcharts-tooltip"  style="cursor:default;padding:0;white-space:nowrap;" transform="translate(0,-9999)"><path fill="none" d="M 3 0 L 13 0 C 16 0 16 0 16 3 L 16 13 C 16 16 16 16 13 16 L 3 16 C 0 16 0 16 0 13 L 0 3 C 0 0 0 0 3 0"  stroke="black" stroke-opacity="0.049999999999999996" stroke-width="5" transform="translate(1, 1)"></path><path fill="none" d="M 3 0 L 13 0 C 16 0 16 0 16 3 L 16 13 C 16 16 16 16 13 16 L 3 16 C 0 16 0 16 0 13 L 0 3 C 0 0 0 0 3 0"  stroke="black" stroke-opacity="0.09999999999999999" stroke-width="3" transform="translate(1, 1)"></path><path fill="none" d="M 3 0 L 13 0 C 16 0 16 0 16 3 L 16 13 C 16 16 16 16 13 16 L 3 16 C 0 16 0 16 0 13 L 0 3 C 0 0 0 0 3 0"  stroke="black" stroke-opacity="0.15" stroke-width="1" transform="translate(1, 1)"></path><path fill="rgb(249, 249, 249)" fill-opacity=" .85" d="M 3 0 L 13 0 C 16 0 16 0 16 3 L 16 13 C 16 16 16 16 13 16 L 3 16 C 0 16 0 16 0 13 L 0 3 C 0 0 0 0 3 0"></path><text x="8"  style="font-size:12px;color:#333333;fill:#333333;" y="21"></text></g></svg>